<?xml version="1.0" standalone="no"?><svg xmlns="http://www.w3.org/2000/svg" viewBox="0 0 1440 320"><path fill="#0099ff" fill-opacity="1" d="M0,192L18.5,181.3C36.9,171,74,149,111,128C147.7,107,185,85,222,90.7C258.5,96,295,128,332,122.7C369.2,117,406,75,443,74.7C480,75,517,117,554,117.3C590.8,117,628,75,665,101.3C701.5,128,738,224,775,229.3C812.3,235,849,149,886,138.7C923.1,128,960,192,997,197.3C1033.8,203,1071,149,1108,112C1144.6,75,1182,53,1218,48C1255.4,43,1292,53,1329,90.7C1366.2,128,1403,192,1422,224L1440,256L1440,0L1421.5,0C1403.1,0,1366,0,1329,0C1292.3,0,1255,0,1218,0C1181.5,0,1145,0,1108,0C1070.8,0,1034,0,997,0C960,0,923,0,886,0C849.2,0,812,0,775,0C738.5,0,702,0,665,0C627.7,0,591,0,554,0C516.9,0,480,0,443,0C406.2,0,369,0,332,0C295.4,0,258,0,222,0C184.6,0,148,0,111,0C73.8,0,37,0,18,0L0,0Z"></path></svg>